<svg id="web" xmlns="http://www.w3.org/2000/svg" viewBox="0 0 256 256"><defs><style>.cls-1{fill:#fbb03b;}</style></defs><path class="cls-1" d="M254.79,109a139.43,139.43,0,0,0-4.1-18.25,104.67,104.67,0,0,0-9.38-22.51,115.41,115.41,0,0,0-14.83-20.68A148.5,148.5,0,0,0,213.9,34.2c-5.53-5.08-12-9.57-16.44-11.29-2.17-1.22-4.15-2.24-6-3.3l-5.37-2.91c-1.78-.92-3.61-1.8-5.57-2.7s-4.15-1.7-6.59-2.51c-5.62-1.78-10.81-4-16.19-5.92S146.86,1.94,141,1.44c-3-.33-5.87-.35-8.74-.46l-4.28,0c-1.42,0-2.83,0-4.24.12l-4.24.19-4.26.31c-2.85.15-5.72.51-8.68.71A86.65,86.65,0,0,0,87.41,7c-6.55,2.23-12.84,5-18.5,6.71S58.13,19.51,53.5,23.85,44.74,33,40.12,36.36a161.22,161.22,0,0,0-13.75,11A63,63,0,0,0,14.94,61.1,90.45,90.45,0,0,0,7.23,76.83c-.51,1.35-1,2.73-1.4,4.1S5,83.69,4.61,85.1s-.73,2.83-1.07,4.26S3,92.27,2.7,93.74,2.22,96.63,2,98s-.37,2.75-.51,4.08c-.21,2.69-.49,5.26-.54,7.84s-.16,5.14-.08,7.78c0,1.32,0,2.67.11,4s.17,2.77.26,4.21.09,2.84.07,4.24-.11,2.79-.18,4.17c-.09,2.77-.41,5.53-.49,8.32A47.41,47.41,0,0,0,2.3,159.62,168,168,0,0,0,10.15,180a115.82,115.82,0,0,0,11,18.75,68.89,68.89,0,0,0,5,6.1l2.38,2.51,2.39,2.3c1.57,1.54,3.2,3,4.93,4.6s3.62,3.3,5.69,5.32l3.12,2.86c1,.94,2,1.83,3,2.69l2.92,2.6,2.94,2.47c1.94,1.69,4,3.21,6.12,4.86,1.07.8,2.19,1.56,3.34,2.36s2.33,1.61,3.6,2.36a108.42,108.42,0,0,0,19.89,9.11,202.51,202.51,0,0,0,21.21,5.92c5.84,1.43,12.34.85,18.59-.07s12.37-2.45,18.22-2.73a109,109,0,0,0,18.39-2.74,101.49,101.49,0,0,0,17.8-6.12,121.1,121.1,0,0,0,21.18-12.46,123.23,123.23,0,0,0,15.38-13.37,117.58,117.58,0,0,0,12.35-15,119.55,119.55,0,0,0,10.8-18.87A175,175,0,0,0,250.23,156a176.32,176.32,0,0,0,5.27-28.58h0A78.37,78.37,0,0,0,254.79,109Z"/></svg>